<?xml version="1.0" ?><!DOCTYPE svg  PUBLIC '-//W3C//DTD SVG 1.1//EN'  'http://www.w3.org/Graphics/SVG/1.1/DTD/svg11.dtd'>
<svg height="106px" id="Layer_2" enable-background="new +2 +2 25 25" version="1.1" 
viewBox="+2 +2 25 25" width="106px" 
xml:space="preserve" xmlns="http://www.w3.org/2000/svg" xmlns:xlink="http://www.w3.org/1999/xlink">
<style type="text/css">
<![CDATA[
	.st0{fill:none;stroke:#fff;stroke-width:0.5;stroke-miterlimit:10;}
	.st1{fill:none;stroke:#fff;stroke-miterlimit:10;}
	.st2{fill:#fff;}
	.st3{fill:none;stroke:#fff;stroke-linecap:round;stroke-miterlimit:10;}
	.st4{fill-rule:evenodd;clip-rule:evenodd;fill:none;stroke:#545454;stroke-width:0.5;stroke-miterlimit:10;}
]]>
</style><g><path class="st2" d="M14.659,6.491c4.116,0,4.576,2.547,4.576,5.698c0,2.074-1.01,3.881-2.344,4.879l0.033-0.011  
 c0,1.94,3.398,2.782,4.465,3.006c0.123,0.022,0.213,0.033,0.258,0.045c0.033,0.012,0.056,0.012,0.056,0.012h-0.01   
 c1.912,0.354,3.358,2.02,3.382,4.034H4.243c0.014-1.124,0.467-2.15,1.218-2.891c0.584-0.594,1.34-0.99,2.173-1.144H7.626   
 c0,0,0.022,0,0.057-0.012c0.045-0.012,0.135-0.022,0.258-0.045c1.055-0.224,4.453-1.065,4.453-3.006l0.033,0.011  
c-1.335-0.998-2.345-2.805-2.345-4.879C10.082,9.038,10.543,6.491,14.659,6.491 M14.659,5.491c-5.577,0-5.577,4.357-5.577,6.698  
c0,1.987,0.83,3.927,2.202,5.223c-0.382,0.636-1.735,1.288-3.552,1.673L7.64,19.1c-0.093,0.016-0.164,0.029-0.21,0.041  
l-0.002,0.001c-1.031,0.194-1.957,0.686-2.68,1.421c-0.95,0.937-1.488,2.212-1.505,3.58l-0.012,1.012h1.012h20.832h1.012  
l-0.012-1.012c-0.028-2.444-1.778-4.541-4.166-4.999l-0.01-0.003c-0.046-0.012-0.116-0.025-0.21-0.041l-0.12-0.02 
c-1.8-0.378-3.154-1.029-3.536-1.668c1.372-1.297,2.202-3.235,2.202-5.223C20.235,9.849,20.235,5.491,14.659,5.491L14.659,5.491z"/></g></svg>