<?xml version="1.0" ?>
<!DOCTYPE svg  PUBLIC '-//W3C//DTD SVG 1.1//EN'  'http://www.w3.org/Graphics/SVG/1.1/DTD/svg11.dtd'>
<svg enable-background="new 0 0 512 512" height="106px" id="Calque_1" version="1.1" viewBox="0 0 512 512" width="106px" 
xml:space="preserve" xmlns="http://www.w3.org/2000/svg" xmlns:xlink="http://www.w3.org/1999/xlink"><g>
<path d="M189.105,395.933l-36.557,36.573l-11.407-11.381c-1.955-1.952-5.121-1.948-7.071,0.008c-1.95,1.954-1.947,5.12,0.008,7.07   l14.944,14.91c0.976,0.975,2.254,1.461,3.532,1.461c1.28,0,2.56-0.488,3.536-1.465l40.088-40.106   c1.952-1.953,1.952-5.119-0.001-7.071C194.223,393.98,191.056,393.98,189.105,395.933z" fill="#fff"/>
<path d="M408.248,74.828H333.14V48.437c0-2.761-2.238-5-5-5h-11.097v-8.873c0-2.761-2.238-5-5-5h-52.046c-2.762,0-5,2.239-5,5   v8.873h-11.092c-2.761,0-5,2.239-5,5v26.391h-75.113c-2.761,0-5,2.239-5,5v272.734c-33.534,2.564-60.041,30.65-60.041,64.831   c0,35.864,29.177,65.042,65.041,65.042c34.163,0,62.238-26.48,64.827-59.991h179.629c2.762,0,5-2.238,5-5V79.828   C413.248,77.067,411.01,74.828,408.248,74.828z M264.997,39.564h42.046v17.755h-42.046V39.564z M248.906,53.437h6.092v8.882   c0,2.761,2.238,5,5,5h52.046c2.762,0,5-2.239,5-5v-8.882h6.097V79.79c0,0.013-0.004,0.025-0.004,0.039   c0,0.032,0.009,0.062,0.01,0.094c0.005,0.255,0.032,0.508,0.076,0.759c0.016,0.088,0.029,0.175,0.049,0.261   c0.008,0.035,0.011,0.07,0.02,0.104l5.09,20.315c-7.813-15.978-24.178-26.535-42.442-26.535c-18.165,0-34.455,10.538-42.261,26.49   l5.079-20.271c0.012-0.049,0.017-0.099,0.027-0.147c0.012-0.052,0.02-0.104,0.029-0.157c0.056-0.301,0.093-0.604,0.093-0.911   V53.437z M163.793,472.435c-30.35,0-55.041-24.691-55.041-55.042c0-30.216,24.475-54.813,54.639-55.032   c0.135,0.012,0.265,0.041,0.402,0.041s0.268-0.029,0.402-0.041c30.165,0.219,54.64,24.816,54.64,55.032   C218.835,447.744,194.143,472.435,163.793,472.435z M403.248,412.444H228.627c-2.415-31.906-27.936-57.442-59.834-59.882V84.828   h68.707l-6.309,25.183c-0.375,1.494-0.039,3.077,0.908,4.292c0.948,1.214,2.402,1.924,3.942,1.924h9.242   c0.124,0,0.24-0.027,0.361-0.037c0.158-0.011,0.315-0.021,0.47-0.047c0.182-0.03,0.355-0.078,0.529-0.127   c0.133-0.038,0.266-0.074,0.395-0.123c0.181-0.068,0.351-0.151,0.521-0.238c0.114-0.059,0.228-0.115,0.337-0.183   c0.165-0.102,0.317-0.216,0.469-0.335c0.101-0.08,0.201-0.157,0.295-0.244c0.143-0.132,0.272-0.274,0.398-0.421   c0.083-0.095,0.165-0.188,0.24-0.291c0.123-0.167,0.228-0.343,0.329-0.523c0.056-0.1,0.114-0.196,0.163-0.301   c0.098-0.206,0.172-0.42,0.242-0.64c0.022-0.07,0.058-0.132,0.077-0.205c4.353-16.3,19.086-27.684,35.83-27.684   c16.841,0,31.642,11.384,35.993,27.684c0.037,0.141,0.097,0.269,0.145,0.403c0.04,0.109,0.071,0.222,0.118,0.327   c0.105,0.238,0.229,0.463,0.367,0.678c0.023,0.036,0.039,0.076,0.063,0.11c0.167,0.246,0.357,0.472,0.563,0.681   c0.074,0.077,0.159,0.141,0.238,0.213c0.139,0.125,0.279,0.247,0.431,0.356c0.107,0.076,0.219,0.143,0.332,0.211   c0.141,0.084,0.283,0.164,0.432,0.234c0.124,0.059,0.248,0.114,0.378,0.164c0.161,0.061,0.326,0.108,0.493,0.153   c0.123,0.033,0.242,0.07,0.369,0.093c0.257,0.048,0.52,0.073,0.786,0.08c0.04,0.001,0.078,0.012,0.118,0.012h9.243   c1.54,0,2.994-0.71,3.941-1.924c0.948-1.214,1.283-2.797,0.908-4.292l-6.31-25.183h68.702V412.444z" fill="#fff"/>
<path d="M209.553,175.988c0,2.761,2.239,5,5,5H357.49c2.762,0,5-2.239,5-5s-2.238-5-5-5H214.553   C211.792,170.988,209.553,173.227,209.553,175.988z" fill="#fff"/>
<path d="M357.49,219.404H214.553c-2.761,0-5,2.239-5,5s2.239,5,5,5H357.49c2.762,0,5-2.239,5-5S360.251,219.404,357.49,219.404z" fill="#fff"/>
<path d="M357.49,267.819H214.553c-2.761,0-5,2.238-5,5s2.239,5,5,5H357.49c2.762,0,5-2.238,5-5S360.251,267.819,357.49,267.819z" fill="#fff"/>
<path d="M357.49,316.233H214.553c-2.761,0-5,2.238-5,5s2.239,5,5,5H357.49c2.762,0,5-2.238,5-5S360.251,316.233,357.49,316.233z" fill="#fff"/></g></svg>