<?xml version="1.0" ?>
<svg id="Capa_1" style="enable-background:new 0 0 513.529 513.529;" version="1.1" viewBox="0 0 513.529 513.529" xml:space="preserve" 
xmlns="http://www.w3.org/2000/svg" xmlns:xlink="http://www.w3.org/1999/xlink"><g><g>
<path fill="#DDDDDD" stroke="#DDDDDD" d="M256.765,0C114.868,0,0,114.868,0,256.765s114.868,256.765,256.765,256.765s256.765-114.868,256.765-256.765    
S397.696,0,256.765,0z M256.765,489.397c-128.382,0-232.633-104.25-232.633-232.633S128.382,24.132,256.765,24.132   
 s232.633,104.25,232.633,232.633S385.147,489.397,256.765,489.397z"/>
 <path fill="#DDDDDD" stroke="#DDDDDD" d="M346.536,183.403c-39.577,40.542-79.153,81.084-118.73,121.625c-20.271-21.236-40.542-42.472-60.813-63.709    
 c-10.618-11.583-27.993,5.792-17.375,17.375c23.167,24.132,46.333,48.264,69.5,72.396c4.826,4.826,12.549,4.826,17.375,0    
 c42.472-43.438,84.945-86.875,127.417-130.313C374.529,189.195,357.154,171.82,346.536,183.403z"/></g><g/>
 <g/><g/><g/><g/><g/><g/><g/><g/><g/><g/><g/><g/><g/><g/></g><g/><g/><g/><g/><g/><g/><g/><g/><g/><g/><g/><g/><g/><g/><g/>
 </svg>